<?xml version="1.0" encoding="UTF-8"?>
<!DOCTYPE svg PUBLIC "-//W3C//DTD SVG 1.1//EN" "http://www.w3.org/Graphics/SVG/1.1/DTD/svg11.dtd">
<svg xmlns="http://www.w3.org/2000/svg" version="1.1" width="612px" height="612px" style="shape-rendering:geometricPrecision; text-rendering:geometricPrecision; image-rendering:optimizeQuality; fill-rule:evenodd; clip-rule:evenodd" xmlns:xlink="http://www.w3.org/1999/xlink">
<g><path style="opacity:1" fill="#fefefe" d="M -0.5,-0.5 C 203.5,-0.5 407.5,-0.5 611.5,-0.5C 611.5,203.5 611.5,407.5 611.5,611.5C 407.5,611.5 203.5,611.5 -0.5,611.5C -0.5,407.5 -0.5,203.5 -0.5,-0.5 Z"/></g>
<g><path style="opacity:1" fill="#049b9a" d="M 284.5,27.5 C 378.036,25.0417 456.203,58.0417 519,126.5C 576.41,195.436 598.077,274.436 584,363.5C 563.775,460.702 508.941,530.536 419.5,573C 320.668,613.465 226.002,605.465 135.5,549C 59.43,495.067 17.93,421.234 11,327.5C 8.48654,236.395 40.6532,160.228 107.5,99C 158.579,55.8016 217.579,31.9682 284.5,27.5 Z"/></g>
<g><path style="opacity:1" fill="#fefefe" d="M 295.5,46.5 C 397.734,47.8544 475.567,91.8544 529,178.5C 577.146,268.33 577.48,358.33 530,448.5C 493.641,508.82 441.474,548.987 373.5,569C 303.333,587.547 235.999,580.214 171.5,547C 87.5959,492.741 43.9293,415.241 40.5,314.5C 43.9326,213.752 87.5993,136.252 171.5,82C 209.918,59.5661 251.251,47.7328 295.5,46.5 Z"/></g>
<g><path style="opacity:1" fill="#059b9a" d="M 159.5,148.5 C 180.206,154.342 200.873,160.509 221.5,167C 237.563,171.193 253.896,173.86 270.5,175C 293.485,176.413 316.485,176.746 339.5,176C 360.611,173.858 381.611,171.025 402.5,167.5C 402.5,181.833 402.5,196.167 402.5,210.5C 381.91,210.294 361.41,208.961 341,206.5C 332.826,208.337 327.493,213.337 325,221.5C 321.632,237.661 320.632,253.995 322,270.5C 322.374,271.416 322.874,272.25 323.5,273C 338.788,273.182 353.454,274.182 367.5,276C 382.201,278.857 395.868,284.19 408.5,292C 409.793,292.49 411.127,292.657 412.5,292.5C 413.6,249.842 414.767,207.176 416,164.5C 420.363,161.375 425.196,159.208 430.5,158C 439.932,156.716 448.932,154.049 457.5,150C 459.473,149.505 461.473,149.338 463.5,149.5C 462.289,155.922 459.456,161.589 455,166.5C 453.803,169.089 452.803,171.756 452,174.5C 451.556,253.038 454.723,331.871 461.5,411C 461.376,427.291 461.376,443.457 461.5,459.5C 460.569,464.425 457.569,466.759 452.5,466.5C 400.084,459.018 347.418,455.851 294.5,457C 248.763,460.071 203.263,465.238 158,472.5C 154.396,473.013 151.396,472.013 149,469.5C 148.333,456.323 147.499,443.156 146.5,430C 146.525,427.245 146.859,424.578 147.5,422C 159.151,421.061 170.817,420.395 182.5,420C 210.321,415.022 238.321,411.356 266.5,409C 267.416,408.626 268.25,408.126 269,407.5C 270.997,384.908 272.33,362.241 273,339.5C 274.096,299.933 275.263,260.433 276.5,221C 276.64,217.386 276.307,213.719 275.5,210C 237.157,209.785 198.824,209.119 160.5,208C 159.678,188.324 159.345,168.491 159.5,148.5 Z"/></g>
<g><path style="opacity:1" fill="#fdfefe" d="M 383.5,409.5 C 381.603,408.195 379.269,407.529 376.5,407.5C 367.515,406.734 358.515,406.401 349.5,406.5C 349.167,406.5 348.833,406.5 348.5,406.5C 341.352,405.508 334.019,405.175 326.5,405.5C 326.818,400.968 326.485,396.634 325.5,392.5C 324.247,367.473 322.58,342.473 320.5,317.5C 339.48,318.331 358.147,321.164 376.5,326C 395.806,332.995 406.639,346.828 409,367.5C 409.5,382.163 409.667,396.83 409.5,411.5C 400.825,410.927 392.159,410.261 383.5,409.5 Z"/></g>
<g><path style="opacity:1" fill="#aadad9" d="M 325.5,392.5 C 326.485,396.634 326.818,400.968 326.5,405.5C 334.019,405.175 341.352,405.508 348.5,406.5C 340.833,406.5 333.167,406.5 325.5,406.5C 325.5,401.833 325.5,397.167 325.5,392.5 Z"/></g>
<g><path style="opacity:1" fill="#d5eded" d="M 349.5,406.5 C 358.515,406.401 367.515,406.734 376.5,407.5C 379.269,407.529 381.603,408.195 383.5,409.5C 372.026,408.423 360.693,407.423 349.5,406.5 Z"/></g>
</svg>
