<?xml version="1.0" standalone="no"?>
<!DOCTYPE svg PUBLIC "-//W3C//DTD SVG 20010904//EN"
 "http://www.w3.org/TR/2001/REC-SVG-20010904/DTD/svg10.dtd">
<svg version="1.0" xmlns="http://www.w3.org/2000/svg"
 width="612.000000pt" height="612.000000pt" viewBox="0 0 612.000000 612.000000"
 preserveAspectRatio="xMidYMid meet">

<rect x="30" y="30" width="552" height="552" rx="100" ry="100" fill="white" stroke="black" stroke-width="30"/>
<g transform="translate(30.000000,582.000000) scale(0.090000,-0.090000)"
fill="#000000" stroke="none">
<path d="M2810 5834 c-630 -54 -1162 -259 -1620 -623 -330 -263 -586 -574
-764 -930 -158 -315 -233 -548 -288 -901 -28 -182 -31 -576 -5 -750 57 -377
134 -624 293 -942 150 -300 380 -600 624 -812 232 -202 388 -310 619 -426 313
-156 561 -234 929 -292 188 -29 575 -31 767 -4 560 78 1031 275 1445 605 330
263 586 574 764 930 158 315 233 548 288 901 28 182 31 576 5 750 -57 377
-134 624 -293 942 -150 300 -380 600 -624 812 -233 203 -385 308 -619 425
-420 211 -811 308 -1271 316 -113 1 -225 1 -250 -1z m541 -214 c407 -57 752
-180 1088 -387 290 -179 611 -506 803 -819 415 -675 520 -1477 292 -2245 -57
-194 -159 -420 -285 -631 -215 -360 -601 -709 -1015 -916 -291 -146 -533 -221
-874 -273 -178 -27 -509 -29 -685 -5 -417 59 -764 179 -1047 362 -287 186
-607 509 -786 795 -121 192 -252 479 -311 679 -132 448 -149 905 -51 1375 73
353 259 765 468 1035 314 407 651 673 1092 863 398 171 859 230 1311 167z"/>
<path d="M1604 4333 l2 -298 235 -6 c129 -4 386 -4 572 -1 279 4 340 3 347 -8
5 -8 7 -84 4 -169 -2 -86 -9 -352 -14 -591 -10 -439 -36 -1110 -46 -1187 -6
-49 -7 -49 -162 -64 -161 -15 -493 -58 -614 -79 -102 -18 -178 -25 -366 -34
-46 -2 -86 -7 -90 -10 -3 -4 0 -84 7 -179 8 -94 14 -197 15 -228 2 -83 14 -92
106 -86 41 3 199 23 350 46 930 137 1392 144 2371 35 245 -27 272 -25 289 21
14 37 5 602 -14 840 -24 304 -44 667 -51 900 -3 116 -7 235 -10 265 -2 30 -7
235 -11 455 -6 435 -5 447 50 519 27 36 66 114 66 133 0 20 -47 15 -109 -12
-31 -13 -97 -34 -148 -45 -105 -23 -196 -55 -213 -75 -8 -9 -14 -190 -21 -607
-6 -326 -13 -615 -17 -642 l-7 -48 -87 45 c-113 59 -195 91 -293 115 -108 27
-143 31 -340 38 -93 4 -172 9 -175 11 -3 3 -6 77 -8 167 -3 134 0 179 18 266
21 104 37 139 84 192 31 35 47 36 336 15 124 -9 258 -17 298 -17 l72 0 0 215
c0 165 -3 215 -12 215 -7 0 -46 -7 -87 -15 -41 -9 -151 -25 -245 -35 -94 -11
-209 -25 -256 -31 -206 -28 -898 8 -1070 56 -30 8 -77 19 -105 24 -94 18 -216
52 -313 87 -85 31 -145 50 -267 84 -16 5 -40 12 -52 15 l-22 7 3 -299z m1911
-1419 c372 -58 496 -146 567 -404 21 -79 23 -101 20 -299 -1 -118 -4 -217 -7
-219 -7 -7 -299 20 -310 28 -6 5 -125 14 -266 21 l-257 13 -7 195 c-3 108 -15
279 -26 381 -11 102 -23 214 -26 249 l-6 64 109 -7 c60 -4 154 -14 209 -22z"/>
</g>
</svg>
